<svg width="41" height="40" viewBox="0 0 41 40" fill="none" xmlns="http://www.w3.org/2000/svg">
<path d="M7.87751 34.0013L5.07001 2.5H35.93L33.1188 33.9963L20.4813 37.5L7.87751 34.0013Z" fill="#1572B6"/>
<path d="M20.5 34.8224L30.7125 31.9912L33.115 5.07617H20.5V34.8224Z" fill="#33A9DC"/>
<path d="M20.5 16.4887H25.6125L25.965 12.5325H20.5V8.6687H20.5137H30.1875L30.095 9.70495L29.1462 20.3525H20.5V16.4887Z" fill="white"/>
<path d="M20.5238 26.5224L20.5063 26.5274L16.2038 25.3649L15.9288 22.2837H13.8375H12.05L12.5913 28.3499L20.505 30.5474L20.5238 30.5424V26.5224Z" fill="#EBEBEB"/>
<path d="M25.2837 20.1887L24.8187 25.3625L20.51 26.525V30.545L28.43 28.35L28.4887 27.6975L29.16 20.1887H25.2837Z" fill="white"/>
<path d="M20.5138 8.6687V11.0687V12.5225V12.5325H11.1938H11.1813L11.1038 11.6637L10.9275 9.70495L10.835 8.6687H20.5138Z" fill="#EBEBEB"/>
<path d="M20.5 16.4888V18.8888V20.3425V20.3525H16.2638H16.2513L16.1737 19.4838L15.9988 17.525L15.9062 16.4888H20.5Z" fill="#EBEBEB"/>
</svg>
