<svg width="41" height="40" viewBox="0 0 41 40" fill="none" xmlns="http://www.w3.org/2000/svg">
<path d="M20.5 37.5C30.165 37.5 38 29.665 38 20C38 10.335 30.165 2.5 20.5 2.5C10.835 2.5 3 10.335 3 20C3 29.665 10.835 37.5 20.5 37.5Z" fill="#1794D4"/>
<path d="M23 8.75H20.5V11.25H23V8.75Z" fill="white"/>
<path d="M13 12.5H15.5V15H13V12.5Z" fill="white"/>
<path d="M8.00193 21.1768C8.21555 24.8034 10.3753 30 18 30C26.5 30 30.2916 23.75 31.125 20.625C32.1666 20.625 34.5 20 35.5 17.5C34.875 16.875 32.375 16.875 31.125 17.5C31.125 16.5 30.5 14.375 29.25 13.75C28.4166 14.5834 27.125 16.75 28.625 18.75C28 20 26.3334 20 25.5 20H9.17862C8.51677 20 7.96301 20.516 8.00193 21.1768Z" fill="white"/>
<path d="M11.75 16.25H9.25V18.75H11.75V16.25Z" fill="white"/>
<path d="M13 16.25H15.5V18.75H13V16.25Z" fill="white"/>
<path d="M19.25 16.25H16.75V18.75H19.25V16.25Z" fill="white"/>
<path d="M20.5 16.25H23V18.75H20.5V16.25Z" fill="white"/>
<path d="M26.75 16.25H24.25V18.75H26.75V16.25Z" fill="white"/>
<path d="M19.25 12.5H16.75V15H19.25V12.5Z" fill="white"/>
<path d="M20.5 12.5H23V15H20.5V12.5Z" fill="white"/>
</svg>
