<svg width="80" height="81" viewBox="0 0 80 81" fill="none" xmlns="http://www.w3.org/2000/svg">
<path d="M70 13.833C70.884 13.833 71.7323 14.1845 72.3574 14.8096C72.9825 15.4347 73.333 16.283 73.333 17.167V67.167C73.3329 68.935 72.631 70.6307 71.3809 71.8809C70.1307 73.131 68.435 73.8329 66.667 73.833H23.333C22.4492 73.8329 21.6016 73.4823 20.9766 72.8574C20.3514 72.2323 20 71.3841 20 70.5C20 69.616 20.3515 68.7677 20.9766 68.1426C21.6016 67.5178 22.4492 67.1671 23.333 67.167H66.667V17.167C66.667 16.283 67.0175 15.4347 67.6426 14.8096C68.2677 14.1844 69.1159 13.833 70 13.833ZM53.333 7.16699C55.101 7.16699 56.7967 7.86911 58.0469 9.11914C59.297 10.3693 59.9999 12.065 60 13.833V53.833C60 55.6011 59.2971 57.2976 58.0469 58.5479C56.7967 59.7978 55.1009 60.5 53.333 60.5H13.333C11.5651 60.4999 9.8693 59.7979 8.61914 58.5479C7.3689 57.2976 6.66699 55.6011 6.66699 53.833V13.833C6.6671 12.065 7.36899 10.3693 8.61914 9.11914C9.86931 7.869 11.565 7.16707 13.333 7.16699H53.333ZM43.2002 24.3809C42.7602 24.3809 42.3242 24.4675 41.918 24.6367C41.5118 24.8059 41.1429 25.0538 40.833 25.3662L30.833 35.3662L25.7002 30.2334C25.3903 29.921 25.0214 29.6731 24.6152 29.5039C24.209 29.3347 23.773 29.2471 23.333 29.2471C22.8932 29.2471 22.4578 29.3348 22.0518 29.5039C21.6456 29.6731 21.2767 29.921 20.9668 30.2334C20.346 30.8579 19.9971 31.7025 19.9971 32.583C19.9971 33.4636 20.346 34.3091 20.9668 34.9336L28.4668 42.4336C28.7755 42.7484 29.1437 42.9993 29.5498 43.1709C29.9559 43.3425 30.3922 43.4317 30.833 43.4336C31.2962 43.4499 31.7581 43.3694 32.1885 43.1973C32.6188 43.0251 33.0088 42.7648 33.333 42.4336L45.5664 30.0664C46.1872 29.4419 46.5361 28.5973 46.5361 27.7168C46.5361 26.8362 46.1872 25.9908 45.5664 25.3662C45.2566 25.0539 44.8875 24.8059 44.4814 24.6367C44.0755 24.4676 43.64 24.3809 43.2002 24.3809Z" fill="#C5C6C7"/>
</svg>
