<svg width="41" height="40" viewBox="0 0 41 40" fill="none" xmlns="http://www.w3.org/2000/svg">
<path d="M20.435 2.5H20.5162C20.9326 2.69833 21.3382 2.91864 21.7312 3.16C26.2554 5.76167 30.7796 8.36417 35.3037 10.9675C35.4788 11.0609 35.6217 11.2048 35.7139 11.3804C35.8062 11.5561 35.8436 11.7554 35.8212 11.9525C35.8112 17.4388 35.8212 22.9237 35.815 28.4075C35.7561 28.6692 35.5961 28.897 35.37 29.0413C30.5591 31.8113 25.7479 34.5796 20.9362 37.3463C20.8196 37.4351 20.6791 37.487 20.5327 37.4953C20.3863 37.5035 20.2408 37.4677 20.115 37.3925C15.2983 34.6308 10.4862 31.8642 5.67873 29.0925C5.52249 29.0186 5.39162 28.9001 5.30264 28.752C5.21365 28.6038 5.17054 28.4326 5.17873 28.26C5.17873 22.775 5.17873 17.2904 5.17873 11.8062C5.16694 11.6344 5.20667 11.4629 5.29284 11.3137C5.37901 11.1645 5.5077 11.0444 5.66248 10.9688C10.1808 8.37042 14.6991 5.77042 19.2175 3.16875C19.62 2.93875 20.015 2.695 20.435 2.5Z" fill="#019639"/>
<path d="M11.4588 13.1725C11.4588 17.6966 11.4588 22.2212 11.4588 26.7462C11.453 26.9968 11.4972 27.246 11.5889 27.4793C11.6805 27.7126 11.8177 27.9253 11.9925 28.105C12.3275 28.4359 12.7659 28.642 13.2345 28.6889C13.7031 28.7357 14.1736 28.6205 14.5675 28.3625C14.8312 28.1833 15.0471 27.9424 15.1963 27.6607C15.3455 27.3789 15.4236 27.065 15.4238 26.7462C15.4238 23.4712 15.4175 20.1962 15.4238 16.9212C18.4096 20.4962 21.4017 24.0662 24.4 27.6312C24.8166 28.0532 25.3324 28.3639 25.9003 28.5347C26.4681 28.7054 27.0698 28.7309 27.65 28.6087C28.0597 28.528 28.4328 28.318 28.7142 28.0095C28.9957 27.701 29.1708 27.3104 29.2138 26.895C29.2204 22.2775 29.2204 17.6604 29.2138 13.0437C29.1707 12.5509 28.9445 12.0921 28.5798 11.7579C28.2151 11.4237 27.7384 11.2383 27.2438 11.2383C26.7491 11.2383 26.2724 11.4237 25.9077 11.7579C25.543 12.0921 25.3168 12.5509 25.2738 13.0437C25.2738 16.3712 25.2538 19.695 25.2738 23.0212C22.3413 19.5637 19.445 16.0762 16.5238 12.6062C16.1386 12.1124 15.6288 11.7302 15.0467 11.499C14.4647 11.2679 13.8315 11.1961 13.2125 11.2912C12.7436 11.3434 12.3089 11.5619 11.9871 11.907C11.6654 12.2521 11.478 12.701 11.4588 13.1725Z" fill="white"/>
</svg>
