<svg width="41" height="40" viewBox="0 0 41 40" fill="none" xmlns="http://www.w3.org/2000/svg">
<path d="M23.8486 19.9699C23.8486 18.1769 22.3495 16.7231 20.5 16.7231C18.6507 16.7231 17.1514 18.1769 17.1514 19.9699C17.1514 21.7631 18.6507 23.2168 20.5 23.2168C22.3495 23.2168 23.8486 21.7631 23.8486 19.9699Z" fill="#53C1DE"/>
<path fill-rule="evenodd" clip-rule="evenodd" d="M31.3755 13.9421C32.0826 11.156 32.9715 5.98935 29.838 4.2377C26.7191 2.49369 22.6605 5.83554 20.5174 7.84147C18.3805 5.85552 14.2079 2.52796 11.077 4.28517C7.95939 6.03504 8.9208 11.116 9.64362 13.9196C6.73539 14.7205 1.75 16.4455 1.75 19.9699C1.75 23.4842 6.7302 25.361 9.62122 26.1611C8.89572 28.9802 7.98245 33.9886 11.1041 35.7346C14.2466 37.4915 18.4063 34.2431 20.5693 32.2152C22.7261 34.233 26.7458 37.5026 29.8653 35.7517C32.9945 33.9954 32.1795 28.898 31.4566 26.0781C34.2591 25.2762 39.25 23.4404 39.25 19.9699C39.25 16.4794 34.2379 14.7404 31.3755 13.9421ZM31.0203 24.5837C30.5456 23.127 29.905 21.5779 29.1214 19.9776C29.8694 18.4151 30.4851 16.886 30.9465 15.4386C33.0449 16.0285 37.6481 17.3766 37.6481 19.9699C37.6481 22.5875 33.2308 23.9484 31.0203 24.5837ZM29.0625 34.4075C26.735 35.7137 23.2776 32.587 21.6847 31.1011C22.7415 29.9805 23.7975 28.6777 24.8281 27.2311C26.6411 27.0752 28.3538 26.8202 29.907 26.4721C30.4158 28.4667 31.4003 33.0954 29.0625 34.4075ZM11.9045 34.3889C9.57679 33.0875 10.6407 28.6182 11.1745 26.5416C12.7104 26.8711 14.4108 27.1081 16.228 27.251C17.2654 28.6665 18.352 29.9676 19.447 31.1071C18.0941 32.376 14.2431 35.6962 11.9045 34.3889ZM3.35186 19.9699C3.35186 17.3425 7.92759 16.0041 10.0738 15.4157C10.5431 16.8956 11.1587 18.443 11.9015 20.0077C11.1491 21.5957 10.5247 23.1676 10.0511 24.665C8.00461 24.097 3.35186 22.5989 3.35186 19.9699ZM11.8796 5.62942C14.2169 4.3177 17.8434 7.51229 19.3949 8.95016C18.3055 10.0844 17.2289 11.3757 16.2004 12.7831C14.4367 12.9416 12.7484 13.1961 11.1964 13.5371C10.6141 11.2759 9.5449 6.93974 11.8796 5.62942ZM25.9741 14.4714C27.1706 14.6177 28.317 14.8125 29.3934 15.0507C29.0702 16.055 28.6675 17.1051 28.1931 18.1816C27.5055 16.9166 26.7674 15.677 25.9741 14.4714ZM20.5179 10.0601C21.2568 10.8362 21.9967 11.7029 22.7248 12.6431C21.2481 12.5754 19.7691 12.5751 18.2925 12.6421C19.0211 11.7106 19.7675 10.8452 20.5179 10.0601ZM12.8206 18.1805C12.3541 17.1077 11.955 16.053 11.629 15.0344C12.699 14.8022 13.84 14.6125 15.0288 14.4685C14.2333 15.6715 13.4964 16.9106 12.8206 18.1805ZM15.0629 25.5821C13.8349 25.4492 12.6766 25.2691 11.6069 25.0434C11.9381 24.0069 12.346 22.9294 12.8224 21.8335C13.5075 23.1166 14.2556 24.3677 15.0629 25.5821ZM20.5623 29.9894C19.803 29.195 19.0456 28.3164 18.306 27.3714C19.791 27.4279 21.2789 27.428 22.7638 27.3637C22.0335 28.326 21.2961 29.2059 20.5623 29.9894ZM28.2084 21.7777C28.7096 22.8855 29.1321 23.9571 29.4678 24.9761C28.3804 25.2167 27.2065 25.4105 25.9696 25.5544C26.7687 24.3259 27.5186 23.067 28.2084 21.7777ZM23.9341 25.7426C21.6626 25.9 19.377 25.8982 17.1047 25.7555C15.8136 23.9269 14.6642 22.0037 13.6721 20.0072C14.6595 18.0149 15.8005 16.0955 17.0855 14.2697C19.3594 14.1031 21.6473 14.1026 23.9211 14.2707C25.1951 16.0964 26.3344 18.0107 27.3446 19.9851C26.3464 21.9765 25.1994 23.8997 23.9341 25.7426ZM29.0379 5.58325C31.3757 6.89067 30.3351 11.5341 29.8244 13.5532C28.2686 13.2051 26.5791 12.9461 24.8104 12.7851C23.7799 11.3625 22.7122 10.069 21.6405 8.94936C23.2119 7.48051 26.7226 4.28861 29.0379 5.58325Z" fill="#53C1DE"/>
</svg>
