<svg width="80" height="81" viewBox="0 0 80 81" fill="none" xmlns="http://www.w3.org/2000/svg">
<g clip-path="url(#clip0_360_218)">
<path d="M68.1172 45.4259C73.1969 45.4259 77.3156 41.3098 77.3156 36.2301C77.3156 31.1504 73.1967 27.0315 68.1172 27.0315C63.0388 27.0315 58.9199 31.1504 58.9199 36.2301C58.92 41.3098 63.0388 45.4259 68.1172 45.4259Z" fill="#C5C6C7"/>
<path d="M79.8949 54.2892C79.485 51.8264 77.4492 48.3795 75.9083 46.8397C75.7053 46.6356 74.7981 46.5884 74.5531 46.7403C72.6797 47.8925 70.4791 48.5706 68.1172 48.5706C65.758 48.5706 63.5572 47.8925 61.6836 46.7403C61.4375 46.5884 60.5316 46.6356 60.3286 46.8397C59.8978 47.2704 59.4278 47.8439 58.9695 48.5089C60.2094 50.8432 61.1927 53.3229 61.5475 55.4583C61.9022 57.5989 61.787 59.6254 61.2134 61.4729C63.2506 62.21 65.6936 62.5334 68.117 62.5334C74.4381 62.5334 80.9069 60.3417 79.8949 54.2892Z" fill="#C5C6C7"/>
<path d="M39.7636 41.5455C47.9959 41.5455 54.6703 34.8711 54.6703 26.6389C54.6703 18.4092 47.9959 11.7349 39.7636 11.7349C31.5327 11.7349 24.8608 18.4092 24.8608 26.6389C24.8608 34.8711 31.5325 41.5455 39.7636 41.5455Z" fill="#C5C6C7"/>
<path d="M52.3858 43.8286C52.0623 43.5065 50.5934 43.4242 50.1941 43.6714C47.1553 45.5411 43.5892 46.6356 39.7636 46.6356C35.9408 46.6356 32.373 45.5411 29.3358 43.6714C28.9366 43.424 27.4677 43.5065 27.1442 43.8286C24.6409 46.3292 21.3417 51.9195 20.678 55.9048C19.0414 65.7214 29.527 69.2654 39.7636 69.2654C50.003 69.2654 60.4884 65.7214 58.8519 55.9048C58.1881 51.9195 54.8889 46.3292 52.3858 43.8286Z" fill="#C5C6C7"/>
<path d="M11.8827 45.4259C16.9611 45.4259 21.0799 41.3098 21.0799 36.2301C21.0799 31.1504 16.9611 27.0315 11.8827 27.0315C6.80283 27.0315 2.68408 31.1504 2.68408 36.2301C2.68408 41.3098 6.80283 45.4259 11.8827 45.4259Z" fill="#C5C6C7"/>
<path d="M17.9834 55.4583C18.3606 53.2156 19.4249 50.575 20.7591 48.1332C20.3872 47.6253 20.0155 47.1828 19.6724 46.8397C19.4694 46.6356 18.5635 46.5884 18.3174 46.7403C16.4438 47.8925 14.243 48.5706 11.8827 48.5706C9.52205 48.5706 7.31986 47.8925 5.44783 46.7403C5.20283 46.5884 4.29439 46.6356 4.09142 46.8397C2.54658 48.3793 0.516107 51.8264 0.104857 54.2892C-0.905768 60.3417 5.56173 62.5333 11.8827 62.5333C14.1385 62.5333 16.4164 62.2556 18.3606 61.6208C17.748 59.7356 17.6183 57.6617 17.9834 55.4583Z" fill="#C5C6C7"/>
</g>
<defs>
<clipPath id="clip0_360_218">
<rect width="80" height="80" fill="white" transform="translate(0 0.5)"/>
</clipPath>
</defs>
</svg>
