<svg width="41" height="40" viewBox="0 0 41 40" fill="none" xmlns="http://www.w3.org/2000/svg">
<rect x="0.5" width="40" height="40" rx="20" fill="white"/>
<path d="M28.6771 12.0134C29.4422 11.2539 29.4422 10.017 28.6771 9.25588L25.8674 6.44428L25.8719 6.44728L22.0405 2.61941C21.6276 2.2188 21.074 1.99639 20.4989 2.00004C19.9238 2.00369 19.373 2.23311 18.9652 2.63893L3.13876 18.4683C2.93633 18.6696 2.77568 18.909 2.66606 19.1727C2.55644 19.4363 2.5 19.7191 2.5 20.0047C2.5 20.2903 2.55644 20.573 2.66606 20.8367C2.77568 21.1004 2.93633 21.3398 3.13876 21.5411L18.9637 37.3629C19.3716 37.7709 19.9247 38 20.5014 38C21.0781 38 21.6311 37.7709 22.039 37.3629L28.6741 30.728C28.8557 30.5471 28.9997 30.3321 29.098 30.0954C29.1963 29.8586 29.2468 29.6048 29.2468 29.3484C29.2468 29.0921 29.1963 28.8383 29.098 28.6015C28.9997 28.3648 28.8557 28.1498 28.6741 27.9689C28.3073 27.6041 27.8112 27.3993 27.294 27.3993C26.7768 27.3993 26.2807 27.6041 25.9139 27.9689L20.8884 33.0037C20.8401 33.0532 20.7823 33.0925 20.7186 33.1194C20.6548 33.1463 20.5863 33.1601 20.5171 33.1601C20.4479 33.1601 20.3795 33.1463 20.3157 33.1194C20.2519 33.0925 20.1942 33.0532 20.1458 33.0037L7.50417 20.3657C7.45468 20.3173 7.41535 20.2595 7.38851 20.1957C7.36166 20.1319 7.34783 20.0634 7.34783 19.9942C7.34783 19.9249 7.36166 19.8564 7.38851 19.7926C7.41535 19.7288 7.45468 19.671 7.50417 19.6226L20.1413 6.98318C20.1563 6.96817 20.1773 6.95616 20.1938 6.93965C20.2935 6.85905 20.4198 6.81893 20.5477 6.82728C20.6755 6.83562 20.7956 6.89182 20.8839 6.98468L25.9154 12.0134C26.0965 12.1952 26.3118 12.3395 26.5487 12.4379C26.7857 12.5363 27.0397 12.5869 27.2963 12.5869C27.5528 12.5869 27.8068 12.5363 28.0438 12.4379C28.2808 12.3395 28.496 12.1952 28.6771 12.0134ZM16.3085 20.0835C16.3085 21.2168 16.7587 22.3036 17.5601 23.1049C18.3614 23.9063 19.4483 24.3564 20.5816 24.3564C21.7149 24.3564 22.8018 23.9063 23.6032 23.1049C24.4046 22.3036 24.8548 21.2168 24.8548 20.0835C24.8548 18.9502 24.4046 17.8634 23.6032 17.0621C22.8018 16.2607 21.7149 15.8105 20.5816 15.8105C19.4483 15.8105 18.3614 16.2607 17.5601 17.0621C16.7587 17.8634 16.3085 18.9502 16.3085 20.0835ZM37.8625 18.5313L32.921 13.6091C32.554 13.2437 32.057 13.039 31.5392 13.0398C31.0214 13.0406 30.5251 13.247 30.1593 13.6136C29.9778 13.7945 29.8337 14.0095 29.7354 14.2463C29.6372 14.483 29.5866 14.7368 29.5866 14.9932C29.5866 15.2495 29.6372 15.5034 29.7354 15.7401C29.8337 15.9768 29.9778 16.1918 30.1593 16.3727L33.4956 19.7082C33.7056 19.9169 33.7056 20.2426 33.4956 20.4513L30.2073 23.7387C30.026 23.9196 29.8821 24.1345 29.784 24.3711C29.6858 24.6077 29.6353 24.8613 29.6353 25.1175C29.6353 25.3737 29.6858 25.6273 29.784 25.8639C29.8821 26.1005 30.026 26.3154 30.2073 26.4963C30.5741 26.8611 31.0702 27.0659 31.5874 27.0659C32.1046 27.0659 32.6007 26.8611 32.9675 26.4963L37.864 21.6026C38.0659 21.4009 38.226 21.1613 38.3351 20.8976C38.4442 20.6338 38.5003 20.3511 38.5 20.0656C38.4997 19.7801 38.4431 19.4975 38.3335 19.234C38.2238 18.9704 38.0633 18.7311 37.861 18.5298L37.8625 18.5313Z" fill="black"/>
</svg>
