<svg width="80" height="81" viewBox="0 0 80 81" fill="none" xmlns="http://www.w3.org/2000/svg">
<path d="M71.4233 70.53C71.9764 70.53 72.4997 70.2808 72.8481 69.8509C73.1964 69.4212 73.3323 68.8574 73.218 68.3164L72.0629 62.85C72.7207 62.2136 73.1342 61.3251 73.1342 60.3372C73.1342 59.2972 72.671 58.3747 71.9521 57.7338V38.7509L67.3216 41.6164V57.7338C66.6027 58.3747 66.1393 59.2972 66.1393 60.3372C66.1393 61.3252 66.553 62.2138 67.2109 62.85L66.0556 68.3164C65.9413 68.8576 66.0773 69.4213 66.4255 69.8509C66.7738 70.2806 67.2971 70.53 67.8503 70.53H71.4233ZM72.9928 27.6736L42.8692 9.02619C41.9869 8.48276 40.9924 8.20996 39.9979 8.20996C39.0034 8.20996 38.0081 8.48253 37.1313 9.02619L7.00719 27.6736C6.20282 28.1713 5.71428 29.0504 5.71428 29.9965C5.71428 30.9428 6.20282 31.8222 7.00719 32.3207L37.1311 50.9683C38.008 51.5123 39.0032 51.7845 39.9977 51.7845C40.9923 51.7845 41.9869 51.512 42.869 50.9683L72.9928 32.3207C73.7972 31.8224 74.2857 30.9428 74.2857 29.9965C74.2857 29.0504 73.7972 28.171 72.9928 27.6736ZM39.9977 56.4147C38.1213 56.4147 36.2899 55.8936 34.6935 54.9055L17.1221 44.0273V62.7585C17.1221 68.3023 27.3687 72.79 39.9977 72.79C52.6313 72.79 62.8771 68.3022 62.8771 62.7585V44.0273L45.3064 54.9055C43.71 55.8936 41.8742 56.4147 39.9977 56.4147Z" fill="#C5C6C7"/>
</svg>
