<svg width="41" height="40" viewBox="0 0 41 40" fill="none" xmlns="http://www.w3.org/2000/svg">
<path d="M3.7317 21.7665C2.7561 20.7909 2.7561 19.2091 3.7317 18.2335L18.7335 3.2317C19.7091 2.2561 21.2909 2.2561 22.2665 3.2317L37.2682 18.2335C38.2439 19.2091 38.2439 20.7909 37.2682 21.7665L22.2665 36.7682C21.2909 37.7439 19.7091 37.7439 18.7335 36.7682L3.7317 21.7665Z" fill="#EE513B"/>
<path d="M15.6861 6.3269L14.167 7.84608L18.0906 11.7697C17.9319 12.1102 17.8432 12.49 17.8432 12.8905C17.8432 14.0275 18.5576 14.9976 19.562 15.3765V24.9748C18.5576 25.3536 17.8432 26.3238 17.8432 27.4608C17.8432 28.9278 19.0325 30.117 20.4995 30.117C21.9665 30.117 23.1557 28.9278 23.1557 27.4608C23.1557 26.43 22.5686 25.5363 21.7105 25.096V15.3896L25.4611 19.1403C25.3101 19.4739 25.2261 19.8443 25.2261 20.2343C25.2261 21.7013 26.4154 22.8905 27.8824 22.8905C29.3494 22.8905 30.5386 21.7013 30.5386 20.2343C30.5386 18.7673 29.3494 17.578 27.8824 17.578C27.5972 17.578 27.3227 17.6229 27.0652 17.706L23.0371 13.6779C23.1142 13.4291 23.1557 13.1646 23.1557 12.8905C23.1557 11.4235 21.9665 10.2342 20.4995 10.2342C20.2254 10.2342 19.961 10.2758 19.7121 10.3529L15.6861 6.3269Z" fill="white"/>
</svg>
