<svg width="41" height="40" viewBox="0 0 41 40" fill="none" xmlns="http://www.w3.org/2000/svg">
<g clip-path="url(#clip0_352_497)">
<rect x="0.5" width="40" height="40" rx="20" fill="white"/>
<path d="M20.5 3.33337C16.531 3.3184 12.687 4.72029 9.65958 7.28681C6.63212 9.85333 4.61993 13.416 3.98504 17.3338C3.35015 21.2517 4.13424 25.2675 6.19623 28.6588C8.25822 32.05 11.4628 34.5942 15.2333 35.8334C16.0666 35.9667 16.3333 35.45 16.3333 35V32.1834C11.7166 33.1834 10.7333 30 10.7333 30C10.422 28.9649 9.74728 28.0771 8.83329 27.5C7.31662 26.4667 8.94995 26.5 8.94995 26.5C9.47312 26.5677 9.97422 26.7528 10.4158 27.0414C10.8574 27.33 11.228 27.7147 11.5 28.1667C11.9629 28.9899 12.7322 29.597 13.6404 29.8561C14.5486 30.1151 15.5224 30.0051 16.35 29.55C16.4259 28.7051 16.7978 27.9142 17.4 27.3167C13.8333 26.95 9.86662 25.5167 9.86662 19.1667C9.81841 17.5025 10.4156 15.8841 11.5333 14.65C11.0258 13.2158 11.0855 11.6418 11.7 10.25C11.7 10.25 13.1 9.80004 16.2833 11.9167C19.0126 11.183 21.8873 11.183 24.6166 11.9167C27.8 9.7667 29.2 10.25 29.2 10.25C29.8144 11.6418 29.8741 13.2158 29.3666 14.65C30.4843 15.8841 31.0815 17.5025 31.0333 19.1667C31.0333 25.5334 27.1333 26.9334 23.4166 27.35C23.8169 27.7524 24.1266 28.2356 24.3249 28.7674C24.5232 29.2992 24.6057 29.8672 24.5666 30.4334V35C24.5666 35.45 24.8333 35.9834 25.6833 35.8334C29.4469 34.5963 32.6468 32.0591 34.7093 28.6765C36.7717 25.294 37.5618 21.2874 36.9378 17.3751C36.3139 13.4628 34.3167 9.90072 31.3044 7.32752C28.2921 4.75433 24.4617 3.33831 20.5 3.33337Z" fill="black"/>
</g>
<defs>
<clipPath id="clip0_352_497">
<rect x="0.5" width="40" height="40" rx="20" fill="white"/>
</clipPath>
</defs>
</svg>
