<svg width="41" height="41" viewBox="0 0 41 41" fill="none" xmlns="http://www.w3.org/2000/svg">
<g clip-path="url(#clip0_381_167)">
<path d="M0.5 14.7223C0.5 9.74397 0.5 7.25486 1.46883 5.35341C2.32104 3.68087 3.68087 2.32104 5.35341 1.46883C7.25486 0.5 9.74397 0.5 14.7223 0.5H26.2777C31.256 0.5 33.7451 0.5 35.6466 1.46883C37.3191 2.32104 38.679 3.68087 39.5311 5.35341C40.5 7.25486 40.5 9.74397 40.5 14.7223V26.2777C40.5 31.256 40.5 33.7451 39.5311 35.6466C38.679 37.3191 37.3191 38.679 35.6466 39.5311C33.7451 40.5 31.256 40.5 26.2777 40.5H14.7223C9.74397 40.5 7.25486 40.5 5.35341 39.5311C3.68087 38.679 2.32104 37.3191 1.46883 35.6466C0.5 33.7451 0.5 31.256 0.5 26.2777V14.7223Z" fill="white"/>
<path d="M28.4996 10.2859L20.59 16.4753L12.4996 10.2859V10.2876L12.5094 10.2959V18.9628L20.4989 25.2859L28.4996 19.2069V10.2859Z" fill="#EA4335"/>
<path d="M30.7242 8.8006L28.4996 10.3146V19.2859L35.4996 14.2258V11.1776C35.4996 11.1776 34.65 6.82399 30.7242 8.8006Z" fill="#FBBC05"/>
<path d="M28.4996 19.4381V31.2859H33.8635C33.8635 31.2859 35.3899 31.1352 35.4996 29.4669V14.2859L28.4996 19.4381Z" fill="#34A853"/>
<path d="M12.4996 10.356L10.284 8.81341C6.35235 6.7882 5.49963 11.2471 5.49963 11.2471V14.3702L12.4996 19.2859V10.356Z" fill="#C5221F"/>
<path d="M5.49963 14.2859V29.4667C5.60779 31.1368 7.13582 31.2859 7.13582 31.2859H12.4996L12.4874 19.1692L5.49963 14.2859Z" fill="#4285F4"/>
</g>
<defs>
<clipPath id="clip0_381_167">
<rect x="0.5" y="0.5" width="40" height="40" rx="20" fill="white"/>
</clipPath>
</defs>
</svg>
