<svg width="41" height="40" viewBox="0 0 41 40" fill="none" xmlns="http://www.w3.org/2000/svg">
<path d="M38 2.5H3V37.5H38V2.5Z" fill="#F5DE19"/>
<path d="M26.5112 29.8438C26.8095 30.4495 27.2728 30.9586 27.8478 31.3125C28.4228 31.6664 29.0861 31.8505 29.7612 31.8438C31.1237 31.8438 31.995 31.1625 31.995 30.2188C31.995 29.0938 31.1 28.6913 29.6 28.035L28.7775 27.6825C26.4025 26.6713 24.8275 25.405 24.8275 22.7275C24.8275 20.2613 26.7025 18.3825 29.6437 18.3825C30.5959 18.3137 31.5472 18.5268 32.379 18.9952C33.2108 19.4636 33.8863 20.1665 34.3212 21.0163L31.75 22.66C31.5825 22.2387 31.2909 21.8782 30.9139 21.6263C30.5368 21.3745 30.0921 21.2433 29.6387 21.25C29.4409 21.2302 29.2412 21.2518 29.0522 21.3135C28.8632 21.3751 28.6892 21.4755 28.5411 21.6081C28.3931 21.7408 28.2743 21.9028 28.1923 22.0839C28.1103 22.265 28.067 22.4612 28.065 22.66C28.065 23.6463 28.6762 24.0463 30.0875 24.66L30.91 25.0125C33.705 26.2113 35.285 27.4325 35.285 30.1788C35.285 33.14 32.9587 34.7625 29.835 34.7625C28.6179 34.84 27.4043 34.5637 26.3408 33.9668C25.2772 33.37 24.4091 32.4781 23.8412 31.3988L26.5112 29.8438ZM14.8925 30.1288C15.4087 31.045 15.8787 31.82 17.0087 31.82C18.0887 31.82 18.7712 31.3975 18.7712 29.7537V18.57H22.06V29.7975C22.06 33.2025 20.06 34.7525 17.1487 34.7525C16.1197 34.8088 15.0977 34.5523 14.2171 34.0169C13.3365 33.4814 12.6386 32.692 12.215 31.7525L14.8925 30.1288Z" fill="black"/>
</svg>
