<svg width="41" height="41" viewBox="0 0 41 41" fill="none" xmlns="http://www.w3.org/2000/svg">
<g clip-path="url(#clip0_381_155)">
<path d="M20.5 40.5C31.5457 40.5 40.5 31.5457 40.5 20.5C40.5 9.4543 31.5457 0.5 20.5 0.5C9.4543 0.5 0.5 9.4543 0.5 20.5C0.5 31.5457 9.4543 40.5 20.5 40.5Z" fill="#0077B5"/>
<path fill-rule="evenodd" clip-rule="evenodd" d="M15.2742 10.7837C15.2742 12.0288 14.3262 13.0364 12.8437 13.0364C11.4189 13.0364 10.4708 12.0288 10.5002 10.7837C10.4708 9.47806 11.4188 8.49976 12.8721 8.49976C14.3262 8.49976 15.2458 9.47806 15.2742 10.7837ZM10.6194 29.3189V14.816H15.1266V29.3179L10.6194 29.3189Z" fill="white"/>
<path fill-rule="evenodd" clip-rule="evenodd" d="M18.7393 19.4446C18.7393 17.6357 18.6797 16.0935 18.6201 14.8182H22.5351L22.7432 16.805H22.8322C23.4254 15.8854 24.9079 14.4927 27.3101 14.4927C30.2752 14.4927 32.4995 16.4502 32.4995 20.719V29.321H27.9922V21.2838C27.9922 19.4144 27.3404 18.1399 25.7093 18.1399C24.4633 18.1399 23.7224 18.9999 23.4263 19.8297C23.3071 20.1268 23.2484 20.5412 23.2484 20.9574V29.321H18.7411V19.4446H18.7393Z" fill="white"/>
</g>
<defs>
<clipPath id="clip0_381_155">
<rect width="40" height="40" fill="white" transform="translate(0.5 0.5)"/>
</clipPath>
</defs>
</svg>
