<svg width="41" height="40" viewBox="0 0 41 40" fill="none" xmlns="http://www.w3.org/2000/svg">
<g clip-path="url(#clip0_352_446)">
<path d="M25.0868 24.2591L24.3356 25.5637C24.1092 25.9567 23.6903 26.1989 23.2368 26.1989H17.4815C17.028 26.1989 16.6091 25.9567 16.3827 25.5637L15.6314 24.2591H25.0868ZM27.1901 20.6071L25.8654 22.9072H14.8529L13.5282 20.6071H27.1901ZM25.914 17.0359L27.1922 19.2553H13.5261L14.8042 17.0359H25.914ZM23.2368 13.6599C23.6903 13.6599 24.1092 13.9021 24.3356 14.2951L25.1355 15.684H15.5828L16.3827 14.2951C16.6091 13.9021 17.028 13.6599 17.4815 13.6599H23.2368Z" fill="#00435B"/>
<path d="M9.10539 13.0547C8.46785 9.96325 8.33106 7.59217 8.74314 5.87046C8.98823 4.84646 9.43631 4.0111 10.1177 3.40841C10.837 2.77212 11.7465 2.45989 12.7684 2.45989C14.4542 2.45989 16.2264 3.22864 18.1203 4.68904C18.8928 5.28475 19.6945 6.00275 20.5271 6.84346C20.5934 6.75813 20.6684 6.67767 20.7518 6.60329C23.1059 4.5055 25.0877 3.20214 26.7829 2.6996C27.7908 2.40079 28.7371 2.37232 29.5989 2.66233C30.5085 2.96845 31.2333 3.60124 31.7446 4.48758C32.5886 5.95038 32.8111 7.8725 32.4965 10.2458C32.3682 11.2132 32.149 12.267 31.8392 13.4087C31.9561 13.4228 32.0732 13.4488 32.1892 13.4872C35.176 14.4769 37.2909 15.5413 38.5713 16.7577C39.3331 17.4814 39.8306 18.2871 40.0104 19.179C40.2003 20.1204 40.0152 21.0646 39.5044 21.9503C38.6621 23.411 37.1132 24.563 34.9067 25.4755C34.0207 25.8418 33.0182 26.1737 31.8982 26.4721C31.9493 26.5875 31.9889 26.71 32.0155 26.8386C32.653 29.93 32.7898 32.3011 32.3777 34.0228C32.1326 35.0468 31.6845 35.8822 31.0032 36.4849C30.2839 37.1212 29.3744 37.4334 28.3525 37.4334C26.6667 37.4334 24.8945 36.6646 23.0006 35.2042C22.2199 34.6022 21.4093 33.8753 20.5671 33.023C20.4804 33.1585 20.3741 33.2845 20.2482 33.3966C17.8942 35.4944 15.9123 36.7977 14.2172 37.3003C13.2093 37.5991 12.2629 37.6275 11.4012 37.3375C10.4916 37.0314 9.76677 36.3986 9.25539 35.5123C8.41148 34.0495 8.18894 32.1274 8.50356 29.7541C8.63644 28.7517 8.86702 27.6566 9.19477 26.467C9.06669 26.454 8.93802 26.427 8.81081 26.3848C5.82406 25.395 3.70915 24.3306 2.42872 23.1143C1.6669 22.3905 1.16942 21.5848 0.989587 20.693C0.799769 19.7516 0.984853 18.8073 1.49562 17.9217C2.33798 16.461 3.88683 15.309 6.09335 14.3965C7.00577 14.0192 8.04164 13.6785 9.20227 13.3733C9.16094 13.272 9.12827 13.1656 9.10539 13.0547Z" fill="#002B3B"/>
<path d="M29.9315 27.1424C30.2285 27.0898 30.5131 27.2802 30.5794 27.5723L30.583 27.5896L30.6147 27.754C31.6412 33.1511 30.9181 35.8497 28.4453 35.8497C26.0258 35.8497 22.9459 33.547 19.2055 28.9416C19.1229 28.8398 19.0783 28.7125 19.0794 28.5814C19.0821 28.276 19.3272 28.0295 19.6304 28.0229L19.6479 28.0228L19.8449 28.0242C21.4189 28.0327 22.949 27.9778 24.4353 27.8595C26.1898 27.7199 28.0219 27.4809 29.9315 27.1424ZM12.949 23.0627L12.9584 23.0787L13.0572 23.2512C13.8493 24.6282 14.6745 25.9351 15.5328 27.172C16.5437 28.6286 17.6805 30.1032 18.9431 31.5957C19.1385 31.8266 19.1161 32.1693 18.8958 32.3732L18.8815 32.386L18.7544 32.4953C14.5767 36.075 11.8614 36.7895 10.6084 34.6392C9.38196 32.5343 9.82662 28.707 11.9424 23.1573C11.9889 23.0354 12.0763 22.9333 12.1896 22.8687C12.4545 22.7175 12.7904 22.8047 12.949 23.0627ZM32.0515 15.0987L32.0686 15.1043L32.2259 15.1586C37.3825 16.9524 39.3417 18.9237 38.1033 21.0726C36.8921 23.1742 33.3712 24.7043 27.5404 25.663C27.4103 25.6844 27.2769 25.6595 27.1633 25.5927C26.895 25.435 26.8054 25.0897 26.9631 24.8213C27.7983 23.4007 28.5504 21.9872 29.2196 20.5809C29.9785 18.9858 30.6908 17.2738 31.3562 15.4447C31.4572 15.1674 31.7535 15.0168 32.0343 15.0937L32.0515 15.0987ZM13.8364 14.1956C14.1047 14.3533 14.1944 14.6987 14.0366 14.967C13.2015 16.3876 12.4493 17.8011 11.7802 19.2075C11.0212 20.8025 10.309 22.5146 9.6435 24.3437C9.54054 24.6266 9.234 24.7777 8.94825 24.6896L8.93112 24.684L8.77387 24.6297C3.61723 22.836 1.65809 20.8646 2.89645 18.7158C4.1076 16.6142 7.62858 15.084 13.4594 14.1253C13.5894 14.104 13.7228 14.1288 13.8364 14.1956ZM30.3913 5.36054C31.6178 7.46542 31.1731 11.2927 29.0573 16.8424C29.0108 16.9643 28.9235 17.0664 28.8101 17.1311C28.5452 17.2822 28.2093 17.195 28.0508 16.937L28.0413 16.921L27.9425 16.7485C27.1505 15.3715 26.3253 14.0646 25.4669 12.8277C24.456 11.3712 23.3193 9.89654 22.0566 8.404C21.8613 8.17308 21.8836 7.83037 22.104 7.62654L22.1183 7.61371L22.2453 7.50437C26.423 3.92477 29.1383 3.21016 30.3913 5.36054ZM12.7658 4.07959C15.1852 4.07959 18.2652 6.38229 22.0055 10.9877C22.0882 11.0894 22.1328 11.2168 22.1317 11.3479C22.129 11.6532 21.8839 11.8997 21.5807 11.9064L21.5632 11.9065L21.3662 11.9051C19.7922 11.8965 18.2621 11.9514 16.7758 12.0697C15.0213 12.2094 13.1892 12.4484 11.2795 12.7868C10.9825 12.8395 10.698 12.6491 10.6317 12.357L10.628 12.3397L10.5964 12.1753C9.56979 6.77816 10.293 4.07959 12.7658 4.07959Z" fill="#FF4154"/>
<path d="M17.944 13.7307H22.775C23.4815 13.7307 24.134 14.1086 24.4857 14.7213L26.9113 18.948C27.2603 19.556 27.2603 20.3035 26.9113 20.9115L24.4857 25.1382C24.134 25.7509 23.4815 26.1288 22.775 26.1288H17.944C17.2375 26.1288 16.585 25.7509 16.2333 25.1382L13.8076 20.9115C13.4587 20.3035 13.4587 19.556 13.8076 18.948L16.2333 14.7213C16.585 14.1086 17.2375 13.7307 17.944 13.7307ZM22.0387 15.0064C22.7456 15.0064 23.3984 15.3847 23.7499 15.998L25.4414 18.9489C25.7896 19.5564 25.7896 20.3031 25.4414 20.9106L23.7499 23.8616C23.3984 24.4748 22.7456 24.8531 22.0387 24.8531H18.6803C17.9734 24.8531 17.3206 24.4748 16.9691 23.8616L15.2776 20.9106C14.9293 20.3031 14.9293 19.5564 15.2776 18.9489L16.9691 15.998C17.3206 15.3847 17.9734 15.0064 18.6803 15.0064H22.0387ZM21.2451 16.4017H19.4739C18.7677 16.4017 18.1155 16.7792 17.7636 17.3915L16.8698 18.9471C16.5202 19.5556 16.5202 20.304 16.8698 20.9124L17.7636 22.468C18.1155 23.0803 18.7677 23.4578 19.4739 23.4578H21.2451C21.9512 23.4578 22.6035 23.0803 22.9553 22.468L23.8491 20.9124C24.1987 20.304 24.1987 19.5556 23.8491 18.9471L22.9553 17.3915C22.6035 16.7792 21.9512 16.4017 21.2451 16.4017ZM20.4809 17.7372C21.1866 17.7372 21.8384 18.1141 22.1904 18.7257L22.3171 18.9458C22.6677 19.5549 22.6677 20.3046 22.3171 20.9137L22.1904 21.1338C21.8384 21.7454 21.1866 22.1223 20.4809 22.1223H20.238C19.5324 22.1223 18.8806 21.7454 18.5286 21.1338L18.4018 20.9137C18.0512 20.3046 18.0512 19.5549 18.4018 18.9458L18.5286 18.7257C18.8806 18.1141 19.5324 17.7372 20.238 17.7372H20.4809ZM20.3598 19.0527C20.0457 19.0527 19.7561 19.2199 19.5993 19.4913C19.4425 19.7625 19.4425 20.097 19.5993 20.3683C19.7561 20.6396 20.0457 20.8068 20.3591 20.8068C20.6732 20.8068 20.9628 20.6396 21.1196 20.3683C21.2764 20.097 21.2764 19.7625 21.1196 19.4913C20.9628 19.2199 20.6732 19.0527 20.3598 19.0527Z" fill="#FFD94C"/>
</g>
<defs>
<clipPath id="clip0_352_446">
<rect width="40" height="40" fill="white" transform="translate(0.5)"/>
</clipPath>
</defs>
</svg>
