<svg width="41" height="40" viewBox="0 0 41 40" fill="none" xmlns="http://www.w3.org/2000/svg">
<g clip-path="url(#clip0_352_410)">
<path d="M34.9189 22.2679C33.5273 22.2752 32.3179 22.6103 31.3051 23.1058C30.9335 22.3699 30.5619 21.7141 30.4964 21.2333C30.4235 20.6722 30.3361 20.3298 30.4235 19.6595C30.5109 18.9892 30.9044 18.0347 30.8971 17.9619C30.8898 17.889 30.8097 17.5466 30.0082 17.5393C29.2067 17.532 28.5146 17.6923 28.4344 17.9036C28.3543 18.1149 28.2013 18.5957 28.0993 19.0912C27.9608 19.8198 26.4964 22.4209 25.6585 23.7834C25.3889 23.2515 25.1557 22.7852 25.1047 22.4136C25.0319 21.8526 24.9445 21.5101 25.0319 20.8398C25.1193 20.1695 25.5128 19.215 25.5055 19.1422C25.4982 19.0693 25.418 18.7269 24.6166 18.7196C23.8151 18.7123 23.123 18.8726 23.0428 19.0839C22.9627 19.2952 22.8752 19.7906 22.7077 20.2715C22.5401 20.7524 20.5947 25.0948 20.0847 26.2169C19.8224 26.7925 19.5965 27.2515 19.4363 27.5648C19.4363 27.5648 19.429 27.5866 19.4071 27.6231C19.2687 27.8926 19.1885 28.0384 19.1885 28.0384C19.1885 28.0384 19.1885 28.0384 19.1885 28.0456C19.0792 28.2424 18.9627 28.4245 18.9044 28.4245C18.8607 28.4245 18.7805 27.8999 18.9189 27.1859C19.2104 25.6777 19.9026 23.3316 19.8953 23.2515C19.8953 23.2078 20.0264 22.7997 19.4435 22.5885C18.8752 22.3772 18.6712 22.7269 18.6202 22.7269C18.5692 22.7269 18.5328 22.8507 18.5328 22.8507C18.5328 22.8507 19.1667 20.2132 17.3233 20.2132C16.1721 20.2132 14.5838 21.4737 13.7969 22.6103C13.3015 22.8799 12.245 23.4555 11.1157 24.0748C10.6858 24.3152 10.2414 24.5557 9.82605 24.7815C9.79691 24.7524 9.76776 24.716 9.73862 24.6868C7.50911 22.3043 3.38525 20.6212 3.56011 17.4227C3.62569 16.2569 4.02642 13.1968 11.48 9.48098C17.6148 6.4573 22.4964 7.29519 23.3415 9.15311C24.551 11.8052 20.7259 16.7305 14.3871 17.4446C11.9681 17.7141 10.7004 16.7815 10.3798 16.4318C10.0446 16.0675 9.99363 16.0456 9.86977 16.1185C9.66576 16.2278 9.79691 16.5557 9.86977 16.7451C10.0592 17.2405 10.8388 18.1149 12.1576 18.5447C13.3233 18.9236 16.1576 19.1349 19.5893 17.8089C23.429 16.3225 26.4308 12.1914 25.5492 8.73053C24.6676 5.21869 18.8388 4.06022 13.3233 6.02014C10.0446 7.1859 6.48907 9.02197 3.9317 11.4118C0.893446 14.2533 0.412572 16.7232 0.609294 17.7578C1.31603 21.43 6.37979 23.8198 8.40529 25.5903C8.30328 25.6486 8.20857 25.6996 8.12842 25.7433C7.11567 26.246 3.2541 28.2642 2.29235 30.399C1.19946 32.818 2.46722 34.552 3.3051 34.7852C5.9062 35.5065 8.58015 34.2096 10.0155 32.0675C11.4508 29.9254 11.276 27.1422 10.6129 25.8671C10.6057 25.8526 10.5984 25.838 10.5838 25.8234C10.8461 25.6704 11.1157 25.5101 11.378 25.3571C11.8953 25.0511 12.4053 24.767 12.8424 24.5338C12.5947 25.2114 12.4126 26.0201 12.3251 27.1859C12.2159 28.5557 12.7769 30.3334 13.5128 31.0329C13.8406 31.3389 14.2268 31.3462 14.4745 31.3462C15.3342 31.3462 15.7204 30.6322 16.1503 29.787C16.6749 28.7524 17.1485 27.5502 17.1485 27.5502C17.1485 27.5502 16.5583 30.7997 18.1612 30.7997C18.7441 30.7997 19.3342 30.042 19.5965 29.6558V29.6631C19.5965 29.6631 19.6111 29.6413 19.6403 29.5903C19.6985 29.4956 19.735 29.4373 19.735 29.4373V29.4227C19.9681 29.0147 20.4927 28.0894 21.2723 26.552C22.2778 24.5702 23.2468 22.093 23.2468 22.093C23.2468 22.093 23.3342 22.6977 23.633 23.7032C23.8078 24.2934 24.1721 24.9418 24.4636 25.5684C24.2304 25.8963 24.0847 26.0784 24.0847 26.0784C24.0847 26.0784 24.0847 26.0784 24.092 26.0857C23.9026 26.3334 23.6985 26.603 23.4727 26.8653C22.6785 27.8125 21.7313 28.8981 21.6002 29.2114C21.4472 29.583 21.4836 29.8526 21.7751 30.0711C21.9863 30.2314 22.3652 30.2533 22.7514 30.2314C23.4654 30.1804 23.9681 30.0056 24.2159 29.8963C24.602 29.7579 25.0537 29.5466 25.4763 29.2333C26.2559 28.6577 26.7295 27.8344 26.6858 26.7487C26.6639 26.1513 26.4672 25.5538 26.2268 24.9928C26.2996 24.8908 26.3652 24.7888 26.4381 24.6868C27.6694 22.8872 28.6239 20.9127 28.6239 20.9127C28.6239 20.9127 28.7113 21.5174 29.01 22.5229C29.1557 23.0329 29.4545 23.5866 29.7168 24.1258C28.5583 25.0657 27.8443 26.1586 27.5893 26.8726C27.1302 28.1987 27.4873 28.7961 28.1649 28.9345C28.4709 29.0001 28.908 28.8544 29.2286 28.716C29.6366 28.5848 30.1175 28.3589 30.5765 28.0238C31.3561 27.4482 32.1066 26.6467 32.0628 25.5611C32.041 25.0657 31.9098 24.5775 31.7277 24.1039C32.7113 23.6959 33.9791 23.4701 35.5965 23.6595C39.0647 24.0675 39.7495 26.2314 39.6184 27.1422C39.4873 28.0529 38.7587 28.5484 38.5182 28.7014C38.2778 28.8544 38.1976 28.9054 38.2195 29.0147C38.2486 29.175 38.3652 29.1677 38.5692 29.1385C38.8534 29.0875 40.3907 28.4027 40.4563 26.7269C40.5656 24.5848 38.5255 22.246 34.9189 22.2679ZM8.16485 31.2879C7.01367 32.5411 5.41075 33.0147 4.71858 32.614C3.97541 32.1841 4.26685 30.3334 5.68033 29.0074C6.54008 28.1987 7.64754 27.4482 8.38343 26.9892C8.55101 26.8872 8.79873 26.7415 9.09745 26.5593C9.14846 26.5302 9.1776 26.5156 9.1776 26.5156C9.23589 26.4792 9.29418 26.4427 9.35246 26.4063C9.86977 28.3007 9.37432 29.9691 8.16485 31.2879ZM16.5437 25.5903C16.143 26.5666 15.3051 29.0657 14.7951 28.9272C14.3579 28.8107 14.0883 26.9163 14.7077 25.0438C15.021 24.1039 15.684 22.9819 16.0701 22.5447C16.6967 21.8453 17.3889 21.6121 17.5565 21.8963C17.7678 22.2679 16.7914 24.9783 16.5437 25.5903ZM23.4581 28.8981C23.2905 28.9855 23.1302 29.0438 23.0574 29.0001C23.0064 28.971 23.1302 28.8544 23.1302 28.8544C23.1302 28.8544 23.9973 27.9218 24.3397 27.4992C24.5364 27.2515 24.7696 26.96 25.0173 26.6322V26.7269C25.0173 27.8416 23.939 28.5921 23.4581 28.8981ZM28.7914 27.6813C28.6676 27.5939 28.6894 27.3025 29.1047 26.3917C29.265 26.0347 29.6439 25.4373 30.2924 24.8617C30.3652 25.0948 30.4162 25.3207 30.4089 25.532C30.4016 26.9382 29.3962 27.4628 28.7914 27.6813Z" fill="#CD6799"/>
</g>
<defs>
<clipPath id="clip0_352_410">
<rect width="40" height="40" fill="white" transform="translate(0.5)"/>
</clipPath>
</defs>
</svg>
