<svg width="80" height="81" viewBox="0 0 80 81" fill="none" xmlns="http://www.w3.org/2000/svg">
<path d="M62.9947 12.1013C60.8948 13.2926 58.3591 14.2793 56.1058 13.9032C52.553 13.3121 43.3956 13.3512 37.3173 15.5608C31.2391 17.7704 20.188 24.6774 16.873 25.7846C13.5564 26.8887 13.2809 31.3108 20.7401 32.1382C28.2008 32.9683 34.8311 28.2694 36.4886 27.4421C38.1462 26.6119 54.1714 29.0997 54.1714 29.0997L59.2133 30.3421L70.8373 46.0546C72.8769 44.2827 76.9111 40.5224 77.9325 37.6646C78.3041 36.6237 78.8573 35.6671 79.4667 34.8171L79.5945 34.993C82.3306 28.8772 70.5981 9.41787 62.9947 12.1013Z" fill="#C5C6C7"/>
<path d="M56.1058 32.6225L53.663 32.3759C50.4577 31.8795 41.3936 30.5889 37.9897 30.5889C37.8409 30.5889 37.722 30.5904 37.6333 30.5948C37.4964 30.6731 37.3384 30.7632 37.1836 30.8536C34.7678 32.26 29.1123 35.5526 22.5241 35.5526C21.8006 35.5526 21.0784 35.512 20.3747 35.4337C19.3069 35.315 18.3681 35.1314 17.5378 34.8996C18.3245 35.2442 19.048 35.7375 19.6692 36.3707C20.6423 37.3665 21.247 38.5879 21.4862 39.865C22.0534 39.7129 22.6414 39.6287 23.2431 39.6287C25.0872 39.6287 26.8109 40.3537 28.1 41.6714C29.3681 42.9679 30.057 44.6826 30.0375 46.4967C30.0375 46.5146 30.0344 46.5329 30.0344 46.5509C31.8694 46.5568 33.5872 47.2818 34.8717 48.5936C36.1412 49.8901 36.8302 51.6048 36.8106 53.4189C36.8031 54.0445 36.7069 54.6553 36.5384 55.242C37.8409 55.5142 39.0337 56.1625 39.9873 57.1371C42.6077 59.8161 42.5609 64.1254 39.8836 66.7457L38.5419 68.0573C38.5478 68.0573 38.5555 68.0573 38.5614 68.0573C40.8131 67.8948 42.7114 66.5051 43.2423 64.4112C44.1598 65.1346 45.315 65.5693 46.5741 65.5693C49.5492 65.5693 51.9619 63.1582 51.9619 60.1815C51.9619 59.8687 51.9287 59.5648 51.8777 59.2668C52.8255 60.0928 54.0602 60.5965 55.4155 60.5965C58.3908 60.5965 60.8034 58.1839 60.8034 55.2087C61.4411 55.4748 62.1405 55.6237 62.8745 55.6237C65.8497 55.6237 68.2623 53.2111 68.2623 50.2359C68.2623 47.9767 67.1569 46.5056 64.5322 43.4671L56.1058 32.6225Z" fill="#C5C6C7"/>
<path d="M17.3 38.6903C15.9553 37.317 13.7533 37.2928 12.38 38.6361L7.40875 43.502C6.03546 44.8453 6.0114 47.0473 7.35468 48.4206C8.69796 49.7939 10.9 49.818 12.2734 48.4731L17.2461 43.6088C18.6192 42.2656 18.6433 40.0636 17.3 38.6903Z" fill="#C5C6C7"/>
<path d="M25.7294 43.991C24.3861 42.6161 22.1841 42.5921 20.8106 43.9368L14.1803 50.4227C12.807 51.7674 12.7845 53.9694 14.1278 55.3412C15.4709 56.716 17.673 56.7399 19.0478 55.3954L25.6766 48.9094C27.05 47.5663 27.0741 45.3643 25.7294 43.991Z" fill="#C5C6C7"/>
<path d="M32.5025 50.913C31.1594 49.5397 28.9573 49.5141 27.5841 50.8589L20.9537 57.3463C19.5805 58.6894 19.5564 60.8914 20.9011 62.2663C22.2444 63.638 24.4464 63.6622 25.8198 62.3174L32.4501 55.8314C33.8233 54.4869 33.8456 52.2847 32.5025 50.913Z" fill="#C5C6C7"/>
<path d="M37.6181 59.4567C36.2734 58.0834 34.0714 58.0578 32.6997 59.4025L28.8323 63.187C27.4591 64.5302 27.435 66.7322 28.7783 68.1055C30.1214 69.4788 32.325 69.5014 33.6983 68.1597L37.5655 64.3753C38.9373 63.032 38.9614 60.83 37.6181 59.4567Z" fill="#C5C6C7"/>
<path d="M14.8122 34.3283C15.3356 34.3283 15.847 34.3945 16.3434 34.5072C12.1664 32.9053 11.4745 29.9753 11.3647 28.9418C11.0698 26.159 12.8628 23.6247 15.823 22.6379C17.0144 22.2409 20.1384 20.5381 23.1573 18.8926C26.3973 17.1251 29.9531 15.1864 33.0472 13.7603C29.1272 13.4431 25.4542 13.5768 23.4912 13.9033C21.3808 14.2551 19.0223 13.4114 17.0053 12.3254C9.40172 9.6406 -2.33063 29.0998 0.405466 35.2173C0.903278 35.9648 1.35015 36.7831 1.66453 37.6647C2.12922 38.9642 3.21812 40.4503 4.45922 41.8522C4.65328 41.6025 4.85937 41.3587 5.08953 41.1315L10.0608 36.2658C11.3391 35.0172 13.0252 34.3283 14.8122 34.3283Z" fill="#C5C6C7"/>
</svg>
