<svg width="41" height="40" viewBox="0 0 41 40" fill="none" xmlns="http://www.w3.org/2000/svg">
<path d="M11.75 17.125C12.9167 12.4583 15.8333 10.125 20.5 10.125C27.5 10.125 28.375 15.375 31.875 16.25C34.2083 16.8333 36.25 15.9583 38 13.625C36.8333 18.2917 33.9167 20.625 29.25 20.625C22.25 20.625 21.375 15.375 17.875 14.5C15.5417 13.9167 13.5 14.7917 11.75 17.125ZM3 27.625C4.16667 22.9583 7.08333 20.625 11.75 20.625C18.75 20.625 19.625 25.875 23.125 26.75C25.4583 27.3333 27.5 26.4583 29.25 24.125C28.0833 28.7917 25.1667 31.125 20.5 31.125C13.5 31.125 12.625 25.875 9.125 25C6.79167 24.4167 4.75 25.2917 3 27.625Z" fill="#44A8B3"/>
</svg>
