<svg width="41" height="41" viewBox="0 0 41 41" fill="none" xmlns="http://www.w3.org/2000/svg">
<g clip-path="url(#clip0_381_161)">
<path d="M20.5 0.5C9.45422 0.5 0.5 9.45422 0.5 20.5C0.5 31.5458 9.45422 40.5 20.5 40.5C31.5458 40.5 40.5 31.5458 40.5 20.5C40.5 9.45422 31.5458 0.5 20.5 0.5Z" fill="#40B3E0"/>
<path d="M30.2317 12.0048L26.6595 30.0152C26.6595 30.0152 26.16 31.2643 24.7861 30.6648L16.5426 24.3448L13.5451 22.896L8.49921 21.1973C8.49921 21.1973 7.72483 20.9226 7.64983 20.3231C7.57499 19.7235 8.52421 19.3988 8.52421 19.3988L28.583 11.5301C28.583 11.5301 30.2317 10.8057 30.2317 12.0048Z" fill="white"/>
<path d="M15.9091 29.813C15.9091 29.813 15.6684 29.7905 15.3686 28.8411C15.0689 27.8919 13.5452 22.8959 13.5452 22.8959L25.6603 15.2022C25.6603 15.2022 26.3599 14.7775 26.3349 15.2022C26.3349 15.2022 26.4597 15.277 26.085 15.6267C25.7103 15.9766 16.5677 24.1948 16.5677 24.1948" fill="#D2E5F1"/>
<path d="M19.7033 26.768L16.4427 29.7409C16.4427 29.7409 16.1878 29.9343 15.9089 29.813L16.5333 24.291" fill="#B5CFE4"/>
</g>
<defs>
<clipPath id="clip0_381_161">
<rect width="40" height="40" fill="white" transform="translate(0.5 0.5)"/>
</clipPath>
</defs>
</svg>
